<svg 
 xmlns="http://www.w3.org/2000/svg"
 xmlns:xlink="http://www.w3.org/1999/xlink"
 width="21px" height="21px">
<path fill-rule="evenodd"  fill="rgb(0, 0, 0)"
 d="M19.945,1.047 C18.548,-0.351 16.273,-0.351 14.875,1.047 L11.046,4.876 C9.950,5.971 9.713,7.606 10.335,8.934 L8.934,10.335 C7.606,9.713 5.972,9.950 4.876,11.046 L1.047,14.875 C-0.351,16.272 -0.351,18.547 1.047,19.945 C2.445,21.343 4.719,21.343 6.117,19.945 L9.946,16.116 C11.089,14.973 11.297,13.245 10.572,11.888 L11.888,10.571 C13.245,11.297 14.973,11.089 16.116,9.946 L19.945,6.117 C21.343,4.719 21.343,2.445 19.945,1.047 ZM8.777,14.946 L4.947,18.775 C4.195,19.527 2.970,19.527 2.217,18.775 C1.465,18.022 1.465,16.798 2.217,16.045 L6.046,12.215 C6.472,11.789 7.050,11.605 7.607,11.661 L6.585,12.684 C6.145,13.123 6.145,13.839 6.585,14.279 C7.025,14.719 7.741,14.719 8.181,14.279 L9.295,13.165 C9.431,13.787 9.259,14.463 8.777,14.946 ZM18.775,4.947 L14.946,8.776 C14.463,9.259 13.788,9.430 13.166,9.294 L13.854,8.606 C14.294,8.166 14.294,7.450 13.854,7.011 C13.414,6.571 12.698,6.571 12.259,7.011 L11.662,7.607 C11.606,7.050 11.790,6.472 12.216,6.046 L16.045,2.217 C16.798,1.464 18.023,1.464 18.775,2.217 C19.528,2.970 19.528,4.194 18.775,4.947 Z"/>
</svg>