<svg 
 xmlns="http://www.w3.org/2000/svg"
 xmlns:xlink="http://www.w3.org/1999/xlink"
 width="15px" height="17px">
<path fill-rule="evenodd"  fill="rgb(255, 255, 255)"
 d="M4.285,6.360 L4.285,12.950 C3.551,12.634 2.534,12.634 1.549,13.135 C0.086,13.880 -0.327,15.238 0.236,16.099 C0.799,16.960 2.338,17.323 3.802,16.578 C4.856,16.041 5.364,15.186 5.356,14.429 L5.356,6.147 L13.937,4.448 L13.937,11.888 C13.203,11.572 12.186,11.572 11.201,12.073 C9.738,12.818 9.325,14.176 9.889,15.037 C10.451,15.898 11.990,16.261 13.454,15.516 C14.506,14.980 15.015,14.126 15.008,13.369 L15.008,4.235 L15.008,1.049 L15.008,-0.013 L4.285,2.111 L4.285,6.360 Z"/>
</svg>