<svg 
 xmlns="http://www.w3.org/2000/svg"
 xmlns:xlink="http://www.w3.org/1999/xlink"
 width="18px" height="14px">
<path fill-rule="evenodd"  fill="rgb(0, 0, 0)"
 d="M17.825,7.150 L10.804,13.737 C10.697,13.840 10.551,13.887 10.396,13.887 L10.386,13.887 C10.231,13.887 10.085,13.831 9.978,13.728 L3.685,7.469 C3.462,7.243 3.462,6.896 3.695,6.681 L10.454,0.159 C10.561,0.056 10.716,-0.000 10.862,-0.000 L17.378,0.009 C17.699,0.009 17.961,0.253 17.961,0.563 L18.000,6.746 C18.000,6.896 17.942,7.047 17.825,7.150 ZM16.796,1.126 L11.105,1.107 L4.928,7.075 L10.415,12.536 L16.835,6.512 L16.796,1.126 ZM13.950,2.956 C14.387,2.956 14.747,3.302 14.747,3.725 C14.747,4.147 14.387,4.494 13.950,4.494 C13.513,4.494 13.154,4.147 13.154,3.725 C13.164,3.302 13.513,2.956 13.950,2.956 ZM13.950,4.082 C14.154,4.082 14.319,3.922 14.319,3.725 C14.319,3.528 14.154,3.368 13.950,3.368 C13.746,3.368 13.581,3.528 13.581,3.725 C13.581,3.922 13.746,4.082 13.950,4.082 ZM13.950,3.519 C14.068,3.519 14.164,3.611 14.164,3.725 C14.164,3.839 14.068,3.931 13.950,3.931 C13.832,3.931 13.737,3.839 13.737,3.725 C13.737,3.611 13.832,3.519 13.950,3.519 ZM1.432,7.169 L7.327,13.043 C7.550,13.268 7.541,13.624 7.317,13.840 C7.201,13.943 7.055,14.000 6.909,14.000 C6.754,14.000 6.608,13.943 6.492,13.831 L0.199,7.563 C-0.025,7.347 -0.025,6.990 0.199,6.774 L6.171,0.901 C6.404,0.685 6.773,0.675 6.997,0.891 C7.230,1.107 7.230,1.464 7.006,1.689 L1.432,7.169 Z"/>
</svg>