<svg 
 xmlns="http://www.w3.org/2000/svg"
 xmlns:xlink="http://www.w3.org/1999/xlink"
 width="26px" height="22px">
<path fill-rule="evenodd"  fill="rgb(255, 255, 255)"
 d="M25.589,19.551 C23.630,18.385 21.604,18.139 19.860,18.273 C21.624,16.334 22.695,13.788 22.695,11.000 C22.695,4.924 17.614,-0.000 11.347,-0.000 C5.081,-0.000 -0.000,4.924 -0.000,11.000 C-0.000,17.075 5.081,22.000 11.347,22.000 C12.969,22.000 14.510,21.669 15.906,21.075 C15.952,21.061 16.291,20.903 16.352,20.874 C17.606,20.307 21.306,18.961 24.688,20.973 C25.093,21.214 25.623,21.091 25.872,20.699 C26.121,20.306 25.994,19.792 25.589,19.551 ZM16.242,6.828 C17.530,6.422 18.912,7.105 19.330,8.353 C19.748,9.600 19.044,10.940 17.757,11.346 C16.470,11.751 15.087,11.068 14.669,9.821 C14.251,8.573 14.955,7.233 16.242,6.828 ZM11.347,2.731 C12.701,2.731 13.798,3.794 13.798,5.106 C13.798,6.418 12.701,7.481 11.347,7.481 C9.994,7.481 8.897,6.418 8.897,5.106 C8.897,3.794 9.994,2.731 11.347,2.731 ZM3.365,8.353 C3.783,7.105 5.166,6.422 6.453,6.828 C7.740,7.233 8.444,8.573 8.026,9.821 C7.608,11.068 6.225,11.751 4.939,11.346 C3.651,10.940 2.947,9.600 3.365,8.353 ZM9.837,16.924 C9.041,17.985 7.509,18.221 6.414,17.449 C5.319,16.678 5.077,15.193 5.872,14.131 C6.667,13.070 8.200,12.835 9.295,13.606 C10.389,14.377 10.632,15.862 9.837,16.924 ZM11.347,11.941 C10.811,11.941 10.376,11.520 10.376,11.000 C10.376,10.480 10.811,10.058 11.347,10.058 C11.884,10.058 12.319,10.480 12.319,11.000 C12.319,11.520 11.884,11.941 11.347,11.941 ZM12.858,16.924 C12.063,15.862 12.306,14.377 13.401,13.606 C14.495,12.835 16.028,13.070 16.823,14.131 C17.619,15.193 17.376,16.678 16.281,17.449 C15.186,18.221 13.654,17.985 12.858,16.924 Z"/>
</svg>